<svg xmlns="http://www.w3.org/2000/svg" viewBox="0 0 100 100" fill="none">
  <rect width="100" height="100" rx="12" fill="#FFFFFF"/>
  <g transform="translate(6, 10) scale(0.1)">
    <path fill="#000000" d="M286.8,646.5c-56.6,0-96.7-40-96.7-96.7v-290.1c0-56.7,40-96.7,96.7-96.7h306.6c56.6,0,96.7,40,96.7,96.7v96h-100.2l-60.1-104.3h-176.1l-89.1,153.3,89.1,153.3h176.1l60.1-104.3h100.2v96c0,56.6-40.1,96.7-96.7,96.7h-306.6Z"/>
    <polygon fill="#ff5200" points="488.5 323.2 536.2 404.8 488.5 486.3 394.6 486.3 346.9 404.8 394.6 323.2 488.5 323.2"/>
  </g>
</svg>
